<?xml version="1.0" encoding="UTF-8" standalone="no"?>
<svg width="25px" height="25px" viewBox="0 0 25 25" version="1.1" xmlns="http://www.w3.org/2000/svg" xmlns:xlink="http://www.w3.org/1999/xlink">
    <!-- Generator: Sketch 3.7.2 (28276) - http://www.bohemiancoding.com/sketch -->
    <title>Combined Shape</title>
    <desc>Created with Sketch.</desc>
    <defs></defs>
    <g id="Page-1" stroke="none" stroke-width="1" fill="none" fill-rule="evenodd">
        <g id="Artboard-1" transform="translate(-13.000000, -13.000000)" fill="#FFFFFF">
            <path d="M25.5,38 C32.4035594,38 38,32.4035594 38,25.5 C38,18.5964406 32.4035594,13 25.5,13 C18.5964406,13 13,18.5964406 13,25.5 C13,32.4035594 18.5964406,38 25.5,38 Z M30.5,21 C31.3284271,21 32,20.3284271 32,19.5 C32,18.6715729 31.3284271,18 30.5,18 C29.6715729,18 29,18.6715729 29,19.5 C29,20.3284271 29.6715729,21 30.5,21 Z M32.5,26 C33.3284271,26 34,25.3284271 34,24.5 C34,23.6715729 33.3284271,23 32.5,23 C31.6715729,23 31,23.6715729 31,24.5 C31,25.3284271 31.6715729,26 32.5,26 Z" id="Combined-Shape"></path>
        </g>
    </g>
</svg>